<svg width="39" height="13" viewBox="0 0 39 13" fill="none" xmlns="http://www.w3.org/2000/svg">
<path d="M4.864 12.112C4.11733 12.112 3.44533 11.984 2.848 11.728C2.25067 11.4613 1.78133 11.088 1.44 10.608C1.09867 10.128 0.928 9.568 0.928 8.928H2.88C2.92267 9.408 3.10933 9.80267 3.44 10.112C3.78133 10.4213 4.256 10.576 4.864 10.576C5.49333 10.576 5.984 10.4267 6.336 10.128C6.688 9.81867 6.864 9.424 6.864 8.944C6.864 8.57067 6.752 8.26667 6.528 8.032C6.31467 7.79733 6.04267 7.616 5.712 7.488C5.392 7.36 4.944 7.22133 4.368 7.072C3.64267 6.88 3.05067 6.688 2.592 6.496C2.144 6.29333 1.76 5.984 1.44 5.568C1.12 5.152 0.96 4.59733 0.96 3.904C0.96 3.264 1.12 2.704 1.44 2.224C1.76 1.744 2.208 1.376 2.784 1.12C3.36 0.863999 4.02667 0.735999 4.784 0.735999C5.86133 0.735999 6.74133 1.008 7.424 1.552C8.11733 2.08533 8.50133 2.82133 8.576 3.76H6.56C6.528 3.35467 6.336 3.008 5.984 2.72C5.632 2.432 5.168 2.288 4.592 2.288C4.06933 2.288 3.64267 2.42133 3.312 2.688C2.98133 2.95467 2.816 3.33867 2.816 3.84C2.816 4.18133 2.91733 4.464 3.12 4.688C3.33333 4.90133 3.6 5.072 3.92 5.2C4.24 5.328 4.67733 5.46667 5.232 5.616C5.968 5.81867 6.56533 6.02133 7.024 6.224C7.49333 6.42667 7.888 6.74133 8.208 7.168C8.53867 7.584 8.704 8.144 8.704 8.848C8.704 9.41333 8.54933 9.94667 8.24 10.448C7.94133 10.9493 7.49867 11.3547 6.912 11.664C6.336 11.9627 5.65333 12.112 4.864 12.112ZM10.2483 7.552C10.2483 6.66667 10.4296 5.88267 10.7923 5.2C11.1656 4.51733 11.6669 3.98933 12.2963 3.616C12.9363 3.232 13.6403 3.04 14.4083 3.04C15.1016 3.04 15.7043 3.17867 16.2163 3.456C16.7389 3.72267 17.1549 4.05867 17.4643 4.464V3.184H19.3043V12H17.4643V10.688C17.1549 11.104 16.7336 11.4507 16.2003 11.728C15.6669 12.0053 15.0589 12.144 14.3763 12.144C13.6189 12.144 12.9256 11.952 12.2963 11.568C11.6669 11.1733 11.1656 10.6293 10.7923 9.936C10.4296 9.232 10.2483 8.43733 10.2483 7.552ZM17.4643 7.584C17.4643 6.976 17.3363 6.448 17.0803 6C16.8349 5.552 16.5096 5.21067 16.1043 4.976C15.6989 4.74133 15.2616 4.624 14.7923 4.624C14.3229 4.624 13.8856 4.74133 13.4803 4.976C13.0749 5.2 12.7443 5.536 12.4883 5.984C12.2429 6.42133 12.1203 6.944 12.1203 7.552C12.1203 8.16 12.2429 8.69333 12.4883 9.152C12.7443 9.61067 13.0749 9.96267 13.4803 10.208C13.8963 10.4427 14.3336 10.56 14.7923 10.56C15.2616 10.56 15.6989 10.4427 16.1043 10.208C16.5096 9.97333 16.8349 9.632 17.0803 9.184C17.3363 8.72533 17.4643 8.192 17.4643 7.584ZM25.108 10.368L27.604 3.184H29.54L26.18 12H24.004L20.66 3.184H22.612L25.108 10.368ZM38.9988 7.376C38.9988 7.70667 38.9774 8.00533 38.9348 8.272H32.1988C32.2521 8.976 32.5134 9.54133 32.9828 9.968C33.4521 10.3947 34.0281 10.608 34.7108 10.608C35.6921 10.608 36.3854 10.1973 36.7908 9.376H38.7587C38.4921 10.1867 38.0068 10.8533 37.3028 11.376C36.6094 11.888 35.7454 12.144 34.7108 12.144C33.8681 12.144 33.1108 11.9573 32.4388 11.584C31.7774 11.2 31.2548 10.6667 30.8708 9.984C30.4974 9.29067 30.3108 8.49067 30.3108 7.584C30.3108 6.67733 30.4921 5.88267 30.8548 5.2C31.2281 4.50667 31.7454 3.97333 32.4068 3.6C33.0788 3.22667 33.8468 3.04 34.7108 3.04C35.5428 3.04 36.2841 3.22133 36.9348 3.584C37.5854 3.94667 38.0921 4.45867 38.4548 5.12C38.8174 5.77067 38.9988 6.52267 38.9988 7.376ZM37.0948 6.8C37.0841 6.128 36.8441 5.58933 36.3748 5.184C35.9054 4.77867 35.3241 4.576 34.6308 4.576C34.0014 4.576 33.4628 4.77867 33.0148 5.184C32.5668 5.57867 32.3001 6.11733 32.2148 6.8H37.0948Z" fill="#FCF5E5"/>
</svg>
